<?xml version="1.0" encoding="UTF-8"?><svg id="b" xmlns="http://www.w3.org/2000/svg" width="31.17" height="31.24" xmlns:xlink="http://www.w3.org/1999/xlink" viewBox="0 0 31.17 31.24"><defs><clipPath id="f"><rect width="31.17" height="31.24" fill="none" stroke-width="0"/></clipPath></defs><g id="c"><rect id="d" x=".54" y="9.7" width="6.53" height="21.54" fill="#045398" stroke-width="0"/><g id="e"><g clip-path="url(#f)"><g id="g"><path id="h" d="m9.95,16.39c0-2.27,0-5.01-.05-7h6.33c.15,1.05.23,2.1.25,3.15.95-1.85,2.99-3.79,7.78-3.79,5.22,0,6.92,3.77,6.92,10.55v11.94h-6.53v-11.19c0-3.28-1.32-5.6-3.44-5.6-3.68,0-4.74,2.35-4.74,7.22v9.58h-6.53v-14.86Z" fill="#045398" stroke-width="0"/><path id="i" d="m7.6,3.8c0,2.1-1.7,3.8-3.8,3.8S0,5.9,0,3.8,1.7,0,3.8,0c2.1,0,3.8,1.7,3.8,3.8h0" fill="#045398" stroke-width="0"/></g></g></g></g></svg>