<?xml version="1.0" encoding="UTF-8"?><svg id="b" xmlns="http://www.w3.org/2000/svg" width="40.47" height="38.29" xmlns:xlink="http://www.w3.org/1999/xlink" viewBox="0 0 40.47 38.29"><defs><clipPath id="e"><rect width="40.47" height="38.29" fill="none" stroke-width="0"/></clipPath></defs><g id="c"><g id="d"><g clip-path="url(#e)"><g id="f"><path id="g" d="m28.55,38.29c-.34,0-.67-.16-.88-.44l-10.56-14.08-13.11,14.17c-.21.22-.5.35-.8.35H.83c-.39,0-.7-.3-.71-.69,0-.18.07-.36.19-.49l14.81-16L.14,1.13C-.09.82-.04.38.27.15.39.05.55,0,.7,0h11.21c.34,0,.67.16.88.44l9.7,12.94L34.55.35c.21-.22.5-.35.8-.35h2.38c.28,0,.53.16.65.42.11.26.06.56-.13.76l-13.75,14.86,15.83,21.12c.24.31.18.75-.13.98-.12.1-.28.15-.44.15h-11.21Zm5.88-3.37L10.78,3.37h-4.74l23.65,31.55h4.74Z" fill="#045398" stroke-width="0"/></g></g></g></g></svg>