<?xml version="1.0" encoding="UTF-8"?><svg id="b" xmlns="http://www.w3.org/2000/svg" width="45.22" height="31.24" xmlns:xlink="http://www.w3.org/1999/xlink" viewBox="0 0 45.22 31.24"><defs><clipPath id="e"><rect width="45.22" height="31.24" fill="none" stroke-width="0"/></clipPath></defs><g id="c"><g id="d"><g clip-path="url(#e)"><g id="f"><path id="g" d="m43.19,2.72c-1.57-2-4.4-2.43-7.69-2.53-5.84-.19-12.37-.19-12.89-.19s-7.05,0-12.89.19c-3.3.11-6.12.53-7.69,2.53C-.38,5.79.03,15.62.03,15.62c0,0-.41,9.83,2,12.9,1.57,2,4.4,2.43,7.7,2.53,5.84.19,12.37.19,12.89.19s7.05,0,12.89-.19c3.29-.11,6.13-.53,7.69-2.53,2.41-3.07,2-12.9,2-12.9,0,0,.41-9.83-2-12.9m-25.05,19.75v-13.46l11.75,6.73-11.75,6.73Z" fill="#045398" stroke-width="0"/></g></g></g></g></svg>