<svg xmlns="http://www.w3.org/2000/svg" xmlns:xlink="http://www.w3.org/1999/xlink" width="45.225" height="31.242" viewBox="0 0 45.225 31.242">
  <defs>
    <clipPath id="clip-path">
      <rect id="Rectangle_1079" data-name="Rectangle 1079" width="45.225" height="31.242" fill="none"/>
    </clipPath>
  </defs>
  <g id="YouTube_Icon_hover" data-name="YouTube Icon hover" transform="translate(0 0)">
    <g id="Group_2406" data-name="Group 2406" transform="translate(0 0)" clip-path="url(#clip-path)">
      <path id="Path_5236" data-name="Path 5236" d="M43.194,2.719c-1.567-2-4.4-2.426-7.695-2.53C29.663,0,23.127,0,22.612,0S15.558,0,9.724.189C6.429.294,3.6.724,2.03,2.719c-2.413,3.074-2,12.9-2,12.9s-.409,9.828,2,12.9c1.567,2,4.4,2.426,7.7,2.531,5.836.186,12.371.189,12.887.189s7.054,0,12.887-.189c3.294-.106,6.127-.535,7.695-2.531,2.413-3.074,2-12.9,2-12.9s.409-9.828-2-12.9M18.146,22.47V9.011L29.9,15.74Z" transform="translate(0 0)" fill="#6b297d"/>
    </g>
  </g>
</svg>
