<svg id="LinkedIn_icon_hover" data-name="LinkedIn icon hover" xmlns="http://www.w3.org/2000/svg" xmlns:xlink="http://www.w3.org/1999/xlink" width="31.175" height="31.242" viewBox="0 0 31.175 31.242">
  <defs>
    <clipPath id="clip-path">
      <rect id="Rectangle_1081" data-name="Rectangle 1081" width="31.175" height="31.242" fill="none"/>
    </clipPath>
  </defs>
  <rect id="Rectangle_1080" data-name="Rectangle 1080" width="6.527" height="21.537" transform="translate(0.539 9.705)" fill="#6b297d"/>
  <g id="Group_2409" data-name="Group 2409">
    <g id="Group_2408" data-name="Group 2408" clip-path="url(#clip-path)">
      <path id="Path_5237" data-name="Path 5237" d="M22.387,27.383c0-2.268,0-5.013-.051-7h6.326a26.44,26.44,0,0,1,.252,3.154c.948-1.847,2.988-3.791,7.777-3.791,5.222,0,6.922,3.772,6.922,10.552V42.237H37.087V31.044c0-3.285-1.317-5.6-3.436-5.6-3.677,0-4.737,2.347-4.737,7.222v9.576H22.387Z" transform="translate(-12.438 -10.995)" fill="#6b297d"/>
      <path id="Path_5238" data-name="Path 5238" d="M7.6,3.8A3.8,3.8,0,1,1,3.8,0,3.8,3.8,0,0,1,7.6,3.8" fill="#6b297d"/>
    </g>
  </g>
</svg>
