<svg id="Group_2407" data-name="Group 2407" xmlns="http://www.w3.org/2000/svg" xmlns:xlink="http://www.w3.org/1999/xlink" width="35.815" height="24.742" viewBox="0 0 35.815 24.742">
  <defs>
    <clipPath id="clip-path">
      <rect id="Rectangle_1079" data-name="Rectangle 1079" width="35.815" height="24.742" fill="none"/>
    </clipPath>
  </defs>
  <g id="Group_2406" data-name="Group 2406" transform="translate(0 0)" clip-path="url(#clip-path)">
    <path id="Path_5236" data-name="Path 5236" d="M34.207,2.153c-1.241-1.58-3.485-1.921-6.094-2C23.491,0,18.315,0,17.907,0S12.321,0,7.7.149c-2.61.083-4.852.424-6.094,2C-.3,4.588.02,12.371.02,12.371S-.3,20.154,1.607,22.588c1.241,1.581,3.485,1.922,6.094,2,4.621.148,9.8.149,10.206.149s5.587,0,10.206-.149c2.609-.084,4.852-.424,6.094-2,1.911-2.434,1.587-10.217,1.587-10.217s.324-7.783-1.587-10.218M14.371,17.795V7.137l9.308,5.329Z" transform="translate(0 0)" fill="#2493d1"/>
  </g>
</svg>
