<svg id="Group_5507" data-name="Group 5507" xmlns="http://www.w3.org/2000/svg" xmlns:xlink="http://www.w3.org/1999/xlink" width="32.047" height="30.326" viewBox="0 0 32.047 30.326">
  <defs>
    <clipPath id="clip-path">
      <rect id="Rectangle_716" data-name="Rectangle 716" width="32.047" height="30.326" fill="#2493d1"/>
    </clipPath>
  </defs>
  <g id="Group_1366" data-name="Group 1366" transform="translate(0)" clip-path="url(#clip-path)">
    <path id="Path_3298" data-name="Path 3298" d="M22.609,30.326a.872.872,0,0,1-.694-.347l-8.358-11.15L3.175,30.048a.87.87,0,0,1-.637.278H.657a.558.558,0,0,1-.41-.937L11.973,16.716.112.893A.558.558,0,0,1,.558,0h8.88a.871.871,0,0,1,.694.347l7.682,10.248L27.36.278A.87.87,0,0,1,28,0h1.882a.551.551,0,0,1,.511.335.551.551,0,0,1-.1.6L19.4,12.707,31.935,29.433a.558.558,0,0,1-.447.893Zm4.657-2.67L8.536,2.67H4.782L23.511,27.655Z" transform="translate(0 0)" fill="#2493d1"/>
  </g>
</svg>
